<?xml version="1.0" encoding="UTF-8" standalone="no"?>
<svg
   xmlns:dc="http://purl.org/dc/elements/1.1/"
   xmlns:cc="http://creativecommons.org/ns#"
   xmlns:rdf="http://www.w3.org/1999/02/22-rdf-syntax-ns#"
   xmlns:svg="http://www.w3.org/2000/svg"
   xmlns="http://www.w3.org/2000/svg"
   viewBox="0 0 320 320"
   height="320"
   width="320"
   xml:space="preserve"
   id="svg2"
   version="1.1"><metadata
     id="metadata8"><rdf:RDF><cc:Work
         rdf:about=""><dc:format>image/svg+xml</dc:format><dc:type
           rdf:resource="http://purl.org/dc/dcmitype/StillImage" /></cc:Work></rdf:RDF></metadata><defs
     id="defs6" /><g
     transform="matrix(1.3333333,0,0,-1.3333333,0,320)"
     id="g10"><g
       transform="scale(0.1)"
       id="g12"><path
         id="path14"
         style="fill:#000000;fill-opacity:1;fill-rule:nonzero;stroke:none"
         d="M 2400,-0.0117188 H 0 V 2399.99 H 2400 V -0.0117188" /><path
         id="path16"
         style="fill:#ffffff;fill-opacity:1;fill-rule:nonzero;stroke:none"
         d="m 487.535,1199.99 c 0,100.96 81.856,182.8 182.813,182.8 h 138.711 v 103.57 H 669.215 c -157.91,0 -286.387,-128.46 -286.387,-286.38 0,-157.9 128.477,-286.378 286.387,-286.378 l 269.258,0.007 c 15.058,0 27.168,14.813 27.168,27.082 v 530.429 c 0,29.24 18.339,53.89 45.619,61.33 23.29,6.34 55.92,-0.09 77.74,-37.17 1.01,-1.71 67.17,-115.74 167.99,-289.53 79.12,-136.45 160.97,-277.551 162.46,-280.059 8.46,-14.382 20.08,-21.179 31.11,-18.179 6.95,1.886 15.1,8.617 15.1,21.367 v 542.241 c 0.02,29.28 18.28,53.94 45.47,61.34 23.12,6.31 55.6,-0.15 77.4,-37.18 0.98,-1.62 59.45,-102.47 155.68,-268.35 85.1,-146.7 173.09,-298.41 174.75,-301.231 8.48,-14.39 20.12,-21.187 31.13,-18.187 6.96,1.886 15.1,8.617 15.1,21.359 v 702.489 h -103.81 v -418.24 c 0,0 -173.42,298.77 -181.38,312.3 -110.1,187.01 -318.15,109.72 -318.15,-51.26 v -261.04 c 0,0 -173.42,298.77 -181.39,312.3 -110.09,187.01 -318.12,109.72 -318.14,-51.26 v -427.84 c 0.059,-15.56 -11.64,-29.12 -28.672,-29.14 h -163.3 c -100.957,0 -182.813,81.85 -182.813,182.81" /><path
         id="path18"
         style="fill:#ffffff;fill-opacity:1;fill-rule:nonzero;stroke:none"
         d="M 2006.62,1631.36 V 928.871 c 0,-29.242 -18.34,-53.902 -45.63,-61.34 -5.02,-1.359 -10.47,-2.14 -16.15,-2.14 -20.7,0 -44.45,10.23 -61.58,39.308 -0.92,1.563 -69.85,120.381 -174.87,301.451 -75.78,130.61 -154.12,265.66 -155.56,268.14 -8.46,14.35 -19.96,21.17 -30.82,18.21 -6.88,-1.88 -14.93,-8.61 -14.93,-21.39 V 928.871 c 0,-29.25 -18.33,-53.902 -45.62,-61.34 -23.28,-6.332 -55.92,0.098 -77.73,37.168 -0.88,1.5 -64.97,111.941 -162.58,280.271 -81.78,140.95 -166.33,286.72 -167.85,289.32 -8.48,14.38 -20.12,21.19 -31.14,18.19 -6.95,-1.9 -15.08,-8.63 -15.08,-21.36 l -0.01,-530.429 c 0,-36.5 -32.054,-68.511 -68.597,-68.511 H 669.215 c -180.762,0 -327.813,147.05 -327.813,327.8 0,180.76 147.051,327.82 327.813,327.82 h 139.844 v 103.56 H 669.332 c -238.242,0 -431.383,-193.13 -431.383,-431.38 0,-238.23 193.141,-431.359 431.383,-431.359 h 271.875 c 103.343,-0.07 169.803,60.5 169.683,172.188 v 246.051 c 0,0 173.4,-298.758 181.39,-312.301 110.1,-187.008 318.14,-109.719 318.14,51.269 v 261.032 c 0,0 173.42,-298.758 181.37,-312.301 110.1,-187.008 318.15,-109.719 318.17,51.269 v 705.532 h -103.34" /></g></g></svg>